<svg id="Layer_1" data-name="Layer 1" xmlns="http://www.w3.org/2000/svg" xmlns:xlink="http://www.w3.org/1999/xlink" viewBox="0 0 2000 2000"><defs><style>.cls-1,.cls-16,.cls-17,.cls-18,.cls-5{fill:none;}.cls-2{fill:#efefef;}.cls-3{clip-path:url(#clip-path);}.cls-4{fill:#fff;}.cls-16,.cls-5{stroke:#fff;}.cls-16,.cls-17,.cls-18,.cls-5{stroke-miterlimit:10;}.cls-5{stroke-width:7.43px;}.cls-6{fill:#fdab71;}.cls-7{fill:#a8a8cc;}.cls-8{fill:#c7c7e3;}.cls-9{fill:#6b2eca;}.cls-10{fill:#001065;}.cls-11{fill:#ff7977;}.cls-12{fill:#feb701;}.cls-13{fill:#f35757;}.cls-14{fill:#303d8b;}.cls-15{fill:#000e49;}.cls-16,.cls-18{stroke-width:1.49px;}.cls-17,.cls-18{stroke:#001065;}.cls-17{stroke-width:2.97px;}.cls-19{fill:#e59e00;}.cls-20{clip-path:url(#clip-path-2);}.cls-21{fill:#20c9c4;}.cls-22{fill:#23d4ce;}.cls-23{clip-path:url(#clip-path-3);}</style><clipPath id="clip-path"><path class="cls-1" d="M230.14,1765.43h1343s545.6-335.75,104.92-671.51-671.51-272.8-671.51-629.54S167.19,128.63,209.16,779.15,41.28,1513.62,230.14,1765.43Z"/></clipPath><clipPath id="clip-path-2"><rect class="cls-1" x="1250.41" y="632.79" width="288.35" height="232.28"/></clipPath><clipPath id="clip-path-3"><rect class="cls-1" x="1262.27" y="926.86" width="419.09" height="337.6"/></clipPath></defs><path class="cls-2" d="M230.14,1765.43h1343s545.6-335.75,104.92-671.51-671.51-272.8-671.51-629.54S167.19,128.63,209.16,779.15,41.28,1513.62,230.14,1765.43Z"/><g class="cls-3"><rect class="cls-4" x="167.19" y="1093.92" width="41.97" height="881.35"/><rect class="cls-5" x="293.09" y="86.66" width="230.83" height="2056.49"/><rect class="cls-5" x="126.38" y="379.28" width="1426.95" height="167.88"/><rect class="cls-5" x="1301.52" y="253.37" width="293.78" height="1636.8"/><rect class="cls-5" x="1721.21" y="966.85" width="207.51" height="818.4"/><rect class="cls-5" x="63.43" y="1365.56" width="2054.16" height="230.83"/></g><polygon class="cls-6" points="259.75 1764.95 250.82 1763.12 301.35 1515.87 327.13 1521.14 259.75 1764.95"/><polygon class="cls-6" points="371.46 1763.03 362.52 1761.2 413.05 1513.95 438.83 1519.22 371.46 1763.03"/><polygon class="cls-6" points="538.52 1756.58 547.56 1755.41 515.3 1505.12 489.19 1508.48 538.52 1756.58"/><polygon class="cls-6" points="636.36 1756.53 645.4 1755.37 610.45 1484.25 584.34 1487.62 636.36 1756.53"/><polygon class="cls-6" points="310.26 1498.14 264.14 1301.83 310.26 1301.83 326.35 1498.14 310.26 1498.14"/><polygon class="cls-6" points="386.43 1487.41 349.95 1285.74 386.43 1285.74 402.52 1487.41 386.43 1487.41"/><path class="cls-7" d="M242.21,1190.11a19.16,19.16,0,0,1,9.52-14.95c32.3-18.38,116-21.75,129.94-5,15.48,18.58,37.4,122.09,31.73,136.24-7.74,19.36-80.5,44.13-133.92,24.78C234.28,1314.79,239.53,1219.14,242.21,1190.11Z"/><path class="cls-8" d="M256.75,1172.61c20.33-1.31,69.95,144.62,22.73,158.56-43.11,12.72-51.38-86.21-49-135.33a23.35,23.35,0,0,1,14.85-20.66A38.79,38.79,0,0,1,256.75,1172.61Z"/><path class="cls-7" d="M484.68,1466s52.31.47,96-15.86c16.26-6.08,34.31,4.63,35.82,21.92.59,6.73-1.37,14.12-8,21.64-23.22,26.32-129.13,40.14-129.13,40.14Z"/><path class="cls-8" d="M288.77,1478.25s85.81,5.51,186.52-11.81c38.55-6.63,54.84,48,18.73,63-.54.22-1.09.44-1.66.65-44.89,17-178,9.29-203.59-7.74S274.12,1477.67,288.77,1478.25Z"/><rect class="cls-9" x="439.99" y="737.18" width="755.45" height="545.6"/><rect class="cls-2" x="574.65" y="662" width="486.13" height="695.97" transform="translate(1827.69 192.27) rotate(90)"/><path class="cls-10" d="M636.14,893.78c20.39-40-39.55-76.2-73-29.6-27.44,1.84-20.87,35.67-4.61,68.19Z"/><path class="cls-11" d="M923.05,1191.44c.38-8.46-14.51-13.4-27.42-16.33,5.53-4.63,9.78-10.5,8.35-13.5-2.06-4.31-15.06-1.06-23.39,2.91a32.27,32.27,0,0,0-4.26,2.45A19.75,19.75,0,0,0,862,1200.62a20,20,0,0,0,2.85,2.38,30,30,0,0,0,15.25,7.58C893.65,1213.14,922.17,1210.65,923.05,1191.44Z"/><path class="cls-12" d="M877.14,1166.37l-6.74,42-19.09,0-155.5.14a37,37,0,0,1-5.64-.51,38.26,38.26,0,0,1,6.13-76,39.76,39.76,0,0,1,6.13.48l12.59,2.45,3.22.63,7.53,1.45,133.07,25.83Z"/><path class="cls-10" d="M737.11,1756.69a14.72,14.72,0,0,1-14.29,9.91h-94.1l1.58-9.91,5.32-33.07h59.5l33.44,13.57C737.3,1740.74,739.7,1749.62,737.11,1756.69Z"/><path class="cls-10" d="M695.07,1246.32v214.41a41.22,41.22,0,0,1-82.28,3.64l-1.89-21.47-9.51-107.58v0l-7.86-89Z"/><path class="cls-10" d="M612.56,1461.7l23.15,261.91h59.35V1458.07a41.22,41.22,0,0,0-41.21-41.22h-.24A41.22,41.22,0,0,0,612.56,1461.7Z"/><path class="cls-10" d="M501,1766.6h94.11a14.72,14.72,0,0,0,14.29-9.91c2.59-7.07.19-16-8.56-19.5l-33.43-13.57h-59.5l-5.32,33.07Z"/><path class="cls-10" d="M507.71,1246.31H609.25L590,1464.37A41.21,41.21,0,0,1,548.93,1502h0a41.23,41.23,0,0,1-41.22-41.22Z"/><path class="cls-10" d="M590.22,1461.7l-23.15,261.91H507.71V1458.07a41.23,41.23,0,0,1,41.22-41.22h.24A41.22,41.22,0,0,1,590.22,1461.7Z"/><path class="cls-12" d="M695.62,1207.33l-.23.05a33.57,33.57,0,0,1-5.22.61,35.74,35.74,0,0,1-35.35-24L611,1058a45.56,45.56,0,1,1,87.77-23.6l18.35,95.23,1.14,5.94,1.49,7.74,4.27,22.13A35.8,35.8,0,0,1,695.62,1207.33Z"/><path class="cls-12" d="M695.21,1246.32c-31.2,54-107.56,2.07-188,0V1002.55c38.85-29.38,113.43-29.68,167.81,0Z"/><path class="cls-11" d="M619.19,987c-.74,12.41-4.92,26.7-20.32,26-27-1.3-33.52-29.68-33.52-29.68s2.2-40.61,2.83-41h50.15v27A87.43,87.43,0,0,1,619.19,987Z"/><path class="cls-13" d="M619.19,987c-38.82-8.06-44.34-28.53-44.34-28.53l39-16.22h4.47v27A87.43,87.43,0,0,1,619.19,987Z"/><path class="cls-11" d="M560.82,927.54s11.64,56.89,55,45.24a28.88,28.88,0,0,0,13-7.52,26.61,26.61,0,0,0,6.79-11.64c4.37-15.78,3.59-41.53-1.11-75.17C628,904.63,600,902.6,564.3,890.29,568.33,904.49,565.2,916.23,560.82,927.54Z"/><path class="cls-12" d="M556.59,1077.83l-76.11,56.92-3.49,2.61-3.57,2.68-23.71,17.72a35.76,35.76,0,0,1-50.09-7.23l-.14-.18a35.81,35.81,0,0,1,3.34-46.73l94.24-94.43a45.55,45.55,0,1,1,59.53,68.64Z"/><path class="cls-13" d="M558.07,931.83c.15,0,8.65-9.26,16.08,3.21,0,0-13.11-6.18-15.93-3.21"/><path class="cls-14" d="M502.6,1756.69,501,1766.6h94.11a14.72,14.72,0,0,0,14.29-9.91Z"/><path class="cls-14" d="M737.11,1756.69a14.72,14.72,0,0,1-14.29,9.91h-94.1l1.58-9.91Z"/><path class="cls-14" d="M572.79,1723.62H504.51c-2.59-9.34-3.81-18.2,0-25.22h68.28A46.26,46.26,0,0,1,572.79,1723.62Z"/><path class="cls-14" d="M698.89,1723.62H630.61c-2.58-9.34-3.81-18.2,0-25.22h68.28A46.16,46.16,0,0,1,698.89,1723.62Z"/><path class="cls-15" d="M610.9,1442.9l-9.51-107.58v0l3.43-38.82S623.52,1253.59,610.9,1442.9Z"/><path class="cls-11" d="M552.19,1322.68c6.93-4.86,1.75-19.67-3.8-31.69,7,1.55,14.28,1.34,15.79-1.63,2.16-4.26-8.36-12.57-16.59-16.74a31.31,31.31,0,0,0-4.53-1.88,19.76,19.76,0,0,0-35.44,9.14,19.32,19.32,0,0,0-.14,3.71,30.08,30.08,0,0,0,3.3,16.71C517.06,1312.64,536.44,1333.71,552.19,1322.68Z"/><path class="cls-12" d="M544,1271l-37.35,20.28-12.27-15.9L400,1153.1a38.31,38.31,0,0,1,30.62-61.21,38.23,38.23,0,0,1,33.64,20l11.52,23,1.24,2.47,2.16,4.34,54.7,109Z"/><polygon class="cls-10" points="567.41 1275.21 567.41 1360.61 515.53 1360.61 515.53 1319.81 567.41 1275.21"/><line class="cls-16" x1="567.41" y1="1275.21" x2="515.53" y2="1319.81"/><line class="cls-16" x1="675.83" y1="1277.54" x2="695.22" y2="1298.33"/><path class="cls-17" d="M619.72,983.45c-.75,12.42-5.37,29.22-20.79,29.51-28,.52-34-31.39-34-31.39"/><line class="cls-18" x1="598.93" y1="1012.96" x2="607.8" y2="1262.76"/><circle class="cls-10" cx="608.44" cy="1042.92" r="2.69"/><circle class="cls-10" cx="610.49" cy="1081.68" r="2.69"/><circle class="cls-10" cx="612.53" cy="1120.45" r="2.69"/><circle class="cls-10" cx="614.58" cy="1159.21" r="2.69"/><circle class="cls-10" cx="616.62" cy="1197.97" r="2.69"/><circle class="cls-10" cx="618.66" cy="1236.74" r="2.69"/><polygon class="cls-14" points="877.15 1166.37 870.41 1208.34 851.31 1208.36 858.84 1162.82 877.15 1166.37"/><path class="cls-14" d="M544,1271l-37.36,20.28-12.26-15.9c9.79-6.29,37.8-24.18,39.45-24.67Z"/><polyline class="cls-19" points="507.71 1198.6 507.82 1198.81 532.74 1248.49 507.22 1190.39 507.3 1197.77"/><path class="cls-19" d="M534.05,1094.69s-16.86,48.94-26.84,61.58v-41.5Z"/><polygon class="cls-19" points="692.08 1208.5 674.47 1070.61 679.83 1060.61 692.08 1208.5"/><ellipse class="cls-11" cx="565.94" cy="935.04" rx="11.53" ry="14.85"/><path class="cls-13" d="M559,933c-.16.08,8.11-8.74,14.33,1.16C573.28,934.13,564.24,930.25,559,933Z"/><path class="cls-19" d="M725.77,1137c-2,2.07-4,4.24-6,6.29-5.85,6.09-11.07,11.34-11.45,11.17-.63-.28,3.94-12.31,6.74-19.54,1.19-3.1,2.08-5.31,2.08-5.31l1.14,5.94Z"/><polygon class="cls-19" points="476.99 1137.36 479.15 1141.7 473.42 1140.04 457.49 1135.45 475.75 1134.89 480.48 1134.75 476.99 1137.36"/><rect class="cls-8" x="1239.73" y="624.19" width="309.7" height="249.48"/><rect class="cls-2" x="1250.41" y="632.79" width="288.35" height="232.28"/><g class="cls-20"><polygon class="cls-7" points="1299.95 847.86 1463.41 710.21 1583.85 839.26 1566.64 908.08 1299.95 847.86"/><path class="cls-8" d="M1179.51,873.67l154.86-120.44,163.45,172.06S1196.72,925.29,1179.51,873.67Z"/><circle class="cls-8" cx="1334.37" cy="693.01" r="34.41"/></g><path class="cls-21" d="M1445.5,1342.36c-59.22-19.12-111.18,147.46-93.83,253.12l32.33,7.89S1521.2,1366.81,1445.5,1342.36Z"/><path class="cls-4" d="M1367.44,1604.46a1,1,0,0,1-.3,0,1.1,1.1,0,0,1-.76-1.35l67-235.77a1.09,1.09,0,0,1,1.35-.76,1.11,1.11,0,0,1,.76,1.36l-67,235.77A1.1,1.1,0,0,1,1367.44,1604.46Z"/><path class="cls-22" d="M1298.83,1340.85c-85.2,26.22,27.6,267.25,81.22,253.06C1380.05,1593.91,1393.46,1311.74,1298.83,1340.85Z"/><path class="cls-4" d="M1389.52,1617.87a1.1,1.1,0,0,1-1-.71l-84.37-222.36a1.1,1.1,0,1,1,2.05-.78l84.37,222.36a1.11,1.11,0,0,1-.64,1.42A1,1,0,0,1,1389.52,1617.87Z"/><path class="cls-10" d="M1430.52,1580.51v114.33a70.18,70.18,0,0,1-138.85,14.52,69.37,69.37,0,0,1-1.51-14.52V1580.51Z"/><path class="cls-7" d="M768.28,957q0-10.74,6.89-21.76T795.27,917q13.22-7.23,30.85-7.25,16.39,0,28.94,6a46.88,46.88,0,0,1,19.39,16.43,40.26,40.26,0,0,1,6.85,22.6,35,35,0,0,1-3.88,16.85,51.52,51.52,0,0,1-9.27,12.49q-5.35,5.26-19.26,17.7a78.46,78.46,0,0,0-6.15,6.16,22.56,22.56,0,0,0-5.2,9.27c-.41,1.47-1,4.06-1.86,7.75q-2.13,11.76-13.44,11.76a13.75,13.75,0,0,1-9.89-3.84q-4-3.84-4-11.41a40.08,40.08,0,0,1,10.72-28.66,180.93,180.93,0,0,1,13.1-12.49q7.23-6.35,10.45-9.56a32,32,0,0,0,5.42-7.18,17.25,17.25,0,0,0,2.2-8.59,20,20,0,0,0-6.73-15.26q-6.74-6.21-17.35-6.2-12.43,0-18.31,6.28t-9.93,18.49q-3.84,12.76-14.58,12.78a14.35,14.35,0,0,1-10.68-4.46Q768.29,962.19,768.28,957Zm55.23,123.84a17.82,17.82,0,0,1-12-4.46q-5.15-4.45-5.15-12.48a16.09,16.09,0,0,1,5-12,16.82,16.82,0,0,1,12.2-4.87,16.62,16.62,0,0,1,16.85,16.84q0,7.9-5.08,12.43A17.14,17.14,0,0,1,823.51,1080.84Z"/><rect class="cls-8" x="1246.75" y="914.35" width="450.14" height="362.61"/><g class="cls-23"><polygon class="cls-7" points="1109.53 1265.38 1347.1 1065.32 1522.15 1252.88 1497.14 1352.91 1109.53 1265.38"/><circle class="cls-2" cx="1621.95" cy="1174.79" r="190.98"/></g></svg>